<svg xmlns="http://www.w3.org/2000/svg" xmlns:xlink="http://www.w3.org/1999/xlink" version="1.1" width="366.96pt" height="392.88pt" viewBox="0 0 366.96 392.88">
<defs>
<clipPath id="clip_0">
<path transform="matrix(.24,0,0,.24,0,0)" d="M0 0H1529.1665V1635.272H0Z" fill-rule="evenodd"/>
</clipPath>
<clipPath id="clip_1">
<path transform="matrix(.24,0,0,.24,0,0)" d="M0 0H1529.1665V1635.272H0Z" fill-rule="evenodd"/>
</clipPath>
<clipPath id="clip_2">
<path transform="matrix(.24,0,0,.24,0,0)" d="M0 0H1529.1665V1635.272H0Z" fill-rule="evenodd"/>
</clipPath>
<clipPath id="clip_3">
<path transform="matrix(.24,0,0,.24,0,0)" d="M0 0H1529.1665V1635.272H0Z" fill-rule="evenodd"/>
</clipPath>
</defs>
<g clip-path="url(#clip_0)">
<path transform="matrix(.7489795,0,0,.7489795,0,0)" d="M0 0H490V525H0Z" fill="#ffffff"/>
</g>
<g clip-path="url(#clip_1)">
<path transform="matrix(.7487408,0,0,.7489795,0,0)" d="M0 0H490.15626V525H0Z" fill="#f2f2f2"/>
</g>
<g clip-path="url(#clip_2)">
<path transform="matrix(.25440929,0,0,.2544904,0,0)" d="M0 0H1442.5775V1545.1072H0Z" fill="#ffffff"/>
</g>
<g clip-path="url(#clip_3)">
<path transform="matrix(.25440885,0,0,.25448997,171.16214,10.815264)" stroke-width="5" stroke-linecap="butt" stroke-miterlimit="4" stroke-linejoin="miter" fill="none" stroke="#1a1a1a" d="M0 843.0325V16.727272"/>
<path transform="matrix(.00000000000000001557805,-.25448997,.25440885,.000000000000000015583016,171.16214,10.815264)" d="M-20.90909-12.181818 0 0-20.90909 12.181818V-12.181818Z" fill="#1a1a1a"/>
<path transform="matrix(.25440885,0,0,.25448997,171.41672,226.07196)" stroke-width="20" stroke-linecap="butt" stroke-miterlimit="4" stroke-linejoin="miter" fill="none" stroke="#2d9bf0" d="M.007743067 .79996249 5.5213377 570.42819"/>
<path transform="matrix(.0024623827,.25447805,-.25439693,.002463168,172.94318,383.8253)" d="M-61.81818-35.363637 0 0-61.81818 35.363637V-35.363637Z" fill="#2d9bf0"/>
<path transform="matrix(.25440885,0,0,.25448997,16.487273,225.14325)" stroke-width="20" stroke-linecap="butt" stroke-miterlimit="4" stroke-linejoin="miter" fill="none" stroke="#da0063" d="M603.9842 .011292621 49.44962 7.8397586"/>
<path transform="matrix(-.25438348,.0035923504,-.0035912053,-.2544646,16.487273,227.31603)" d="M-61.81818-35.363637 0 0-61.81818 35.363637V-35.363637Z" fill="#da0063"/>
<path transform="matrix(.25440885,0,0,.25448997,58.559015,114.55641)" stroke-width="20" stroke-linecap="butt" stroke-miterlimit="4" stroke-linejoin="miter" fill="none" stroke="#825b49" d="M441.99314 433.5188 35.306474 34.62954"/>
<path transform="matrix(-.18162696,-.17820142,.17814462,-.18168487,58.559015,114.55641)" d="M-61.81818-35.363637 0 0-61.81818 35.363637V-35.363637Z" fill="#825b49"/>
<path transform="matrix(.25440885,0,0,.25448997,172.56229,114.55641)" stroke-width="20" stroke-linecap="butt" stroke-miterlimit="4" stroke-linejoin="miter" fill="none" stroke="#0ca789" d="M.55764397 433.11048 387.13725 35.459787"/>
<path transform="matrix(.17733695,-.1824738,.18241564,.1773935,279.82353,114.55641)" d="M-61.81818-35.363637 0 0-61.81818 35.363637V-35.363637Z" fill="#0ca789"/>
<path transform="matrix(.25440885,0,0,.25448997,172.39008,225.4054)" stroke-width="20" stroke-linecap="butt" stroke-miterlimit="4" stroke-linejoin="miter" fill="none" stroke="#652cb3" d="M.5711341 .56018379 407.25779 399.44944"/>
<path transform="matrix(.18162696,.17820142,-.17814462,.18168487,284.98234,335.87416)" d="M-61.81818-35.363637 0 0-61.81818 35.363637V-35.363637Z" fill="#652cb3"/>
<path transform="matrix(.25440885,0,0,.25448997,63.710355,225.50275)" stroke-width="20" stroke-linecap="butt" stroke-miterlimit="4" stroke-linejoin="miter" fill="none" stroke="#9510ac" d="M421.05213 .5736142 34.472539 398.2243"/>
<path transform="matrix(-.17733693,.18247383,-.18241567,-.17739348,63.710355,335.871)" d="M-61.81818-35.363637 0 0-61.81818 35.363637V-35.363637Z" fill="#9510ac"/>
<path transform="matrix(.25440885,0,0,.25448997,171.46913,225.47281)" stroke-width="5" stroke-linecap="butt" stroke-miterlimit="4" stroke-linejoin="miter" fill="none" stroke="#1a1a1a" d="M.8 0H702.6223"/>
<path transform="matrix(.25440885,0,0,.25448997,354.478,225.47281)" d="M-20.90909-12.181818 0 0-20.90909 12.181818V-12.181818Z" fill="#1a1a1a"/>
<path transform="matrix(.25440885,0,0,.25448997,171.74616,64.65191)" stroke-width="20" stroke-linecap="butt" stroke-miterlimit="4" stroke-linejoin="miter" fill="none" stroke="#fac710" d="M.0013198456 623.29537 .94804766 49.45448"/>
<path transform="matrix(.0004197307,-.2544896,.25440849,.00041986456,172.00812,64.65191)" d="M-61.81818-35.363637 0 0-61.81818 35.363637V-35.363637Z" fill="#fac710"/>
<path transform="matrix(.25440885,0,0,.25448997,174.58388,223.91492)" stroke-width="20" stroke-linecap="butt" stroke-miterlimit="4" stroke-linejoin="miter" fill="none" stroke="#f24726" d="M.79997429 4.8239219 553.69229 .39604733"/>
<path transform="matrix(.25440068,-.0020380344,.0020373848,.25448177,328.02934,223.91492)" d="M-61.81818-35.363637 0 0-61.81818 35.363637V-35.363637Z" fill="#f24726"/>
</g>
</svg>
