<?xml version="1.0" encoding="UTF-8" standalone="no"?>
<!-- Created with Inkscape (http://www.inkscape.org/) -->

<svg
   width="116.36095mm"
   height="136.06189mm"
   viewBox="0 0 116.36095 136.06189"
   version="1.1"
   id="svg1"
   inkscape:version="1.4 (1:1.4+202410161351+e7c3feb100)"
   sodipodi:docname="line_plane_camera.svg"
   xmlns:inkscape="http://www.inkscape.org/namespaces/inkscape"
   xmlns:sodipodi="http://sodipodi.sourceforge.net/DTD/sodipodi-0.dtd"
   xmlns="http://www.w3.org/2000/svg"
   xmlns:svg="http://www.w3.org/2000/svg"
   xmlns:ns1="http://www.iki.fi/pav/software/textext/">
  <sodipodi:namedview
     id="namedview1"
     pagecolor="#ffffff"
     bordercolor="#666666"
     borderopacity="1.0"
     inkscape:showpageshadow="2"
     inkscape:pageopacity="0.0"
     inkscape:pagecheckerboard="0"
     inkscape:deskcolor="#d1d1d1"
     inkscape:document-units="mm"
     inkscape:zoom="1.0825436"
     inkscape:cx="82.675654"
     inkscape:cy="379.19951"
     inkscape:window-width="1850"
     inkscape:window-height="1136"
     inkscape:window-x="70"
     inkscape:window-y="27"
     inkscape:window-maximized="1"
     inkscape:current-layer="layer1" />
  <defs
     id="defs1">
    <marker
       style="overflow:visible"
       id="ArrowTriangleStylized"
       refX="0"
       refY="0"
       orient="auto-start-reverse"
       inkscape:stockid="Stylized triangle arrow"
       markerWidth="3"
       markerHeight="3"
       viewBox="0 0 1 1"
       inkscape:isstock="true"
       inkscape:collect="always"
       preserveAspectRatio="xMidYMid">
      <path
         transform="scale(0.5)"
         style="fill:context-stroke;fill-rule:evenodd;stroke:context-stroke;stroke-width:1pt"
         d="m 6,0 c -3,1 -7,3 -9,5 0,0 0,-4 2,-5 -2,-1 -2,-5 -2,-5 2,2 6,4 9,5 z"
         id="path11" />
    </marker>
  </defs>
  <g
     inkscape:label="Layer 1"
     inkscape:groupmode="layer"
     id="layer1"
     transform="translate(-22.333528,-47.879747)">
    <rect
       style="fill:#ffffff;stroke:#000000;stroke-width:1.60594"
       id="rect1"
       width="70.098648"
       height="56.113968"
       x="84.787666"
       y="155.02036"
       ry="0"
       transform="matrix(0.73040722,-0.68301193,0,1,0,0)" />
    <rect
       style="fill:none;stroke:#000000;stroke-width:1.24812"
       id="rect2"
       width="89.037483"
       height="48.615307"
       x="331.57764"
       y="345.1568"
       transform="matrix(0.90203871,-0.43165515,-0.70030957,0.71383927,0,0)" />
    <path
       style="fill:none;stroke:#000000;stroke-width:1.04997;stroke-linecap:butt;stroke-linejoin:miter;stroke-dasharray:none;stroke-opacity:1"
       d="M 61.378332,120.06341 113.19246,76.931413"
       id="path2" />
    <circle
       style="fill:#000000;stroke:#000000;stroke-width:0.865;stroke-dasharray:none"
       id="path3"
       cx="50.308777"
       cy="110.32919"
       r="1.1692913" />
    <path
       style="fill:none;stroke:#000000;stroke-width:0.264583px;stroke-linecap:butt;stroke-linejoin:miter;stroke-opacity:1"
       d="M 50.753821,111.02536 113.2274,183.8555"
       id="path4" />
    <path
       style="fill:none;stroke:#000000;stroke-width:0.215737px;stroke-linecap:butt;stroke-linejoin:miter;stroke-opacity:1;marker-end:url(#ArrowTriangleStylized)"
       d="M 50.734873,111.00923 101.675,170.39395"
       id="path4-7" />
    <circle
       style="fill:#000000;stroke:#000000;stroke-width:0.865;stroke-dasharray:none"
       id="path3-2"
       cx="69.205795"
       cy="132.25471"
       r="1.1692913" />
    <g
       transform="matrix(1.4602877,0,0,1.4602877,39.067924,98.278995)"
       ns1:version="1.11.0"
       ns1:texconverter="pdflatex"
       ns1:pdfconverter="inkscape"
       ns1:text="$C$"
       ns1:preamble="/home/inaki/.config/inkscape/extensions/textext/default_packages.tex"
       ns1:scale="1.0"
       ns1:alignment="middle center"
       ns1:jacobian_sqrt="0.352778"
       id="g5">
      <defs
         id="id-7ce01321-372a-41c9-8786-059d6794cea9">
        <g
           id="id-3530668f-3156-4fc0-90d1-9eedb71d33d7">
          <symbol
             overflow="visible"
             id="id-aeae7768-da5a-4e7c-b181-fc75ca4a72d4">
            <path
               style="stroke:none;stroke-width:0"
               d=""
               id="id-f30b8ec3-0ccf-4b16-bca0-44f4ed88635b" />
          </symbol>
          <symbol
             overflow="visible"
             id="id-ef96ffc1-bb04-465a-8c5f-254a94fa08fc">
            <path
               style="stroke:none;stroke-width:0"
               d="m 7.578125,-6.921875 c 0,-0.03125 -0.015625,-0.109375 -0.109375,-0.109375 -0.03125,0 -0.046875,0.015625 -0.15625,0.125 L 6.625,-6.140625 C 6.53125,-6.28125 6.078125,-7.03125 4.96875,-7.03125 2.734375,-7.03125 0.5,-4.828125 0.5,-2.515625 0.5,-0.875 1.671875,0.21875 3.203125,0.21875 c 0.859375,0 1.625,-0.390625 2.15625,-0.859375 0.921875,-0.8125 1.09375,-1.71875 1.09375,-1.75 C 6.453125,-2.5 6.34375,-2.5 6.328125,-2.5 c -0.0625,0 -0.109375,0.03125 -0.125,0.109375 -0.09375,0.28125 -0.328125,1 -1.015625,1.578125 -0.6875,0.546875 -1.3125,0.71875 -1.828125,0.71875 -0.890625,0 -1.953125,-0.515625 -1.953125,-2.0625 0,-0.578125 0.203125,-2.1875 1.203125,-3.359375 0.609375,-0.703125 1.546875,-1.203125 2.4375,-1.203125 1.015625,0 1.609375,0.765625 1.609375,1.921875 0,0.40625 -0.03125,0.40625 -0.03125,0.515625 0,0.09375 0.109375,0.09375 0.140625,0.09375 0.125,0 0.125,-0.015625 0.1875,-0.203125 z m 0,0"
               id="id-9ce5334f-e080-4ab2-9fb9-325f78227077" />
          </symbol>
        </g>
      </defs>
      <g
         id="id-ec46e0e0-4f6b-4db1-be31-87cb8713b628"
         transform="translate(-149.212,-127.734)">
        <g
           style="fill:#000000;fill-opacity:1"
           id="id-61a4ec72-bb48-4e7b-8c4d-97e815356d43">
          <g
             transform="translate(148.712,134.765)"
             id="g4">
            <path
               style="stroke:none;stroke-width:0"
               d="m 7.578125,-6.921875 c 0,-0.03125 -0.015625,-0.109375 -0.109375,-0.109375 -0.03125,0 -0.046875,0.015625 -0.15625,0.125 L 6.625,-6.140625 C 6.53125,-6.28125 6.078125,-7.03125 4.96875,-7.03125 2.734375,-7.03125 0.5,-4.828125 0.5,-2.515625 0.5,-0.875 1.671875,0.21875 3.203125,0.21875 c 0.859375,0 1.625,-0.390625 2.15625,-0.859375 0.921875,-0.8125 1.09375,-1.71875 1.09375,-1.75 C 6.453125,-2.5 6.34375,-2.5 6.328125,-2.5 c -0.0625,0 -0.109375,0.03125 -0.125,0.109375 -0.09375,0.28125 -0.328125,1 -1.015625,1.578125 -0.6875,0.546875 -1.3125,0.71875 -1.828125,0.71875 -0.890625,0 -1.953125,-0.515625 -1.953125,-2.0625 0,-0.578125 0.203125,-2.1875 1.203125,-3.359375 0.609375,-0.703125 1.546875,-1.203125 2.4375,-1.203125 1.015625,0 1.609375,0.765625 1.609375,1.921875 0,0.40625 -0.03125,0.40625 -0.03125,0.515625 0,0.09375 0.109375,0.09375 0.140625,0.09375 0.125,0 0.125,-0.015625 0.1875,-0.203125 z m 0,0"
               id="id-7cba68d2-deac-4f71-bd07-cc3bea2c6c99" />
          </g>
        </g>
      </g>
    </g>
    <g
       transform="matrix(1.4602877,0,0,1.4602877,91.224062,146.54841)"
       ns1:version="1.11.0"
       ns1:texconverter="pdflatex"
       ns1:pdfconverter="inkscape"
       ns1:text="$d$\n"
       ns1:preamble="/home/inaki/.config/inkscape/extensions/textext/default_packages.tex"
       ns1:scale="1.0"
       ns1:alignment="middle center"
       ns1:jacobian_sqrt="0.352778"
       id="g7">
      <defs
         id="id-f13983ed-6814-4d9a-9a7f-e259b2af5014">
        <g
           id="id-415e286d-905b-4598-96f3-494167729e19">
          <symbol
             overflow="visible"
             id="id-5be9e661-6dd9-42f7-9193-6d1f172266eb">
            <path
               style="stroke:none;stroke-width:0"
               d=""
               id="id-3333ce6d-626b-4ac2-b4b6-ace716c7194b" />
          </symbol>
          <symbol
             overflow="visible"
             id="id-4b040335-1283-499a-9807-99734d53a275">
            <path
               style="stroke:none;stroke-width:0"
               d="m 5.140625,-6.8125 c 0,0 0,-0.109375 -0.125,-0.109375 -0.15625,0 -1.09375,0.09375 -1.265625,0.109375 -0.078125,0.015625 -0.140625,0.0625 -0.140625,0.1875 0,0.125 0.09375,0.125 0.234375,0.125 0.484375,0 0.5,0.0625 0.5,0.171875 L 4.3125,-6.125 3.71875,-3.765625 C 3.53125,-4.140625 3.25,-4.40625 2.796875,-4.40625 c -1.15625,0 -2.390625,1.46875 -2.390625,2.921875 0,0.9375 0.546875,1.59375 1.3125,1.59375 0.203125,0 0.703125,-0.046875 1.296875,-0.75 0.078125,0.421875 0.4375,0.75 0.90625,0.75 0.359375,0 0.578125,-0.234375 0.75,-0.546875 0.15625,-0.359375 0.296875,-0.96875 0.296875,-0.984375 0,-0.109375 -0.09375,-0.109375 -0.125,-0.109375 -0.09375,0 -0.109375,0.046875 -0.140625,0.1875 -0.171875,0.640625 -0.34375,1.234375 -0.75,1.234375 -0.28125,0 -0.296875,-0.265625 -0.296875,-0.453125 0,-0.25 0.015625,-0.3125 0.046875,-0.484375 z m -2.0625,5.625 C 3.015625,-1 3.015625,-0.984375 2.875,-0.8125 2.4375,-0.265625 2.03125,-0.109375 1.75,-0.109375 c -0.5,0 -0.640625,-0.546875 -0.640625,-0.9375 0,-0.5 0.3125,-1.71875 0.546875,-2.1875 0.3125,-0.578125 0.75,-0.953125 1.15625,-0.953125 0.640625,0 0.78125,0.8125 0.78125,0.875 0,0.0625 -0.015625,0.125 -0.03125,0.171875 z m 0,0"
               id="id-b889467e-6be7-40aa-910c-f2a45ee8cfc1" />
          </symbol>
        </g>
      </defs>
      <g
         id="id-1d6ffd98-87b2-48e0-9d30-4856812844c1"
         transform="translate(-149.118,-127.843)">
        <g
           style="fill:#000000;fill-opacity:1"
           id="id-5418ec40-14ac-4ef0-bbf1-450d1e8a6ad2">
          <g
             transform="translate(148.712,134.765)"
             id="g6">
            <path
               style="stroke:none;stroke-width:0"
               d="m 5.140625,-6.8125 c 0,0 0,-0.109375 -0.125,-0.109375 -0.15625,0 -1.09375,0.09375 -1.265625,0.109375 -0.078125,0.015625 -0.140625,0.0625 -0.140625,0.1875 0,0.125 0.09375,0.125 0.234375,0.125 0.484375,0 0.5,0.0625 0.5,0.171875 L 4.3125,-6.125 3.71875,-3.765625 C 3.53125,-4.140625 3.25,-4.40625 2.796875,-4.40625 c -1.15625,0 -2.390625,1.46875 -2.390625,2.921875 0,0.9375 0.546875,1.59375 1.3125,1.59375 0.203125,0 0.703125,-0.046875 1.296875,-0.75 0.078125,0.421875 0.4375,0.75 0.90625,0.75 0.359375,0 0.578125,-0.234375 0.75,-0.546875 0.15625,-0.359375 0.296875,-0.96875 0.296875,-0.984375 0,-0.109375 -0.09375,-0.109375 -0.125,-0.109375 -0.09375,0 -0.109375,0.046875 -0.140625,0.1875 -0.171875,0.640625 -0.34375,1.234375 -0.75,1.234375 -0.28125,0 -0.296875,-0.265625 -0.296875,-0.453125 0,-0.25 0.015625,-0.3125 0.046875,-0.484375 z m -2.0625,5.625 C 3.015625,-1 3.015625,-0.984375 2.875,-0.8125 2.4375,-0.265625 2.03125,-0.109375 1.75,-0.109375 c -0.5,0 -0.640625,-0.546875 -0.640625,-0.9375 0,-0.5 0.3125,-1.71875 0.546875,-2.1875 0.3125,-0.578125 0.75,-0.953125 1.15625,-0.953125 0.640625,0 0.78125,0.8125 0.78125,0.875 0,0.0625 -0.015625,0.125 -0.03125,0.171875 z m 0,0"
               id="id-5b924492-3ab5-4f96-96d1-a0087d2737d4" />
          </g>
        </g>
      </g>
    </g>
    <g
       transform="matrix(1.4602877,0,0,1.4602877,71.842614,125.27498)"
       ns1:version="1.11.0"
       ns1:texconverter="pdflatex"
       ns1:pdfconverter="inkscape"
       ns1:text="$x$"
       ns1:preamble="/home/inaki/.config/inkscape/extensions/textext/default_packages.tex"
       ns1:scale="1.0"
       ns1:alignment="middle center"
       ns1:jacobian_sqrt="0.352778"
       id="g9">
      <defs
         id="id-6f434fea-b573-4712-9244-d43cb0e5204e">
        <g
           id="id-3909b95e-274d-4db9-90b1-dcbd61816044">
          <symbol
             overflow="visible"
             id="id-02d9a2cc-13c8-4219-aa09-c713a039ea54">
            <path
               style="stroke:none;stroke-width:0"
               d=""
               id="id-63130a5d-6220-4f1f-a23c-43b36ea418ee" />
          </symbol>
          <symbol
             overflow="visible"
             id="id-9b28c4a1-d47d-4a46-99e0-d907b5ab3ee4">
            <path
               style="stroke:none;stroke-width:0"
               d="M 3.328125,-3.015625 C 3.390625,-3.265625 3.625,-4.1875 4.3125,-4.1875 c 0.046875,0 0.296875,0 0.5,0.125 C 4.53125,-4 4.34375,-3.765625 4.34375,-3.515625 c 0,0.15625 0.109375,0.34375 0.375,0.34375 0.21875,0 0.53125,-0.171875 0.53125,-0.578125 0,-0.515625 -0.578125,-0.65625 -0.921875,-0.65625 -0.578125,0 -0.921875,0.53125 -1.046875,0.75 -0.25,-0.65625 -0.78125,-0.75 -1.078125,-0.75 -1.03125,0 -1.609375,1.28125 -1.609375,1.53125 0,0.109375 0.109375,0.109375 0.125,0.109375 0.078125,0 0.109375,-0.03125 0.125,-0.109375 0.34375,-1.0625 1,-1.3125 1.34375,-1.3125 0.1875,0 0.53125,0.09375 0.53125,0.671875 0,0.3125 -0.171875,0.96875 -0.53125,2.375 -0.15625,0.609375 -0.515625,1.03125 -0.953125,1.03125 -0.0625,0 -0.28125,0 -0.5,-0.125 0.25,-0.0625 0.46875,-0.265625 0.46875,-0.546875 0,-0.265625 -0.21875,-0.34375 -0.359375,-0.34375 -0.3125,0 -0.546875,0.25 -0.546875,0.578125 0,0.453125 0.484375,0.65625 0.921875,0.65625 0.671875,0 1.03125,-0.703125 1.046875,-0.75 0.125,0.359375 0.484375,0.75 1.078125,0.75 1.03125,0 1.59375,-1.28125 1.59375,-1.53125 0,-0.109375 -0.078125,-0.109375 -0.109375,-0.109375 -0.09375,0 -0.109375,0.046875 -0.140625,0.109375 -0.328125,1.078125 -1,1.3125 -1.3125,1.3125 -0.390625,0 -0.546875,-0.3125 -0.546875,-0.65625 0,-0.21875 0.046875,-0.4375 0.15625,-0.875 z m 0,0"
               id="id-63108969-63b3-48c9-acd5-731bc6701508" />
          </symbol>
        </g>
      </defs>
      <g
         id="id-0f3a94b5-8faf-48bd-b59d-b802d8c42585"
         transform="translate(-149.009,-130.359)">
        <g
           style="fill:#000000;fill-opacity:1"
           id="id-32ca01e0-823e-4daf-9296-0a84930f93f8">
          <g
             transform="translate(148.712,134.765)"
             id="g8">
            <path
               style="stroke:none;stroke-width:0"
               d="M 3.328125,-3.015625 C 3.390625,-3.265625 3.625,-4.1875 4.3125,-4.1875 c 0.046875,0 0.296875,0 0.5,0.125 C 4.53125,-4 4.34375,-3.765625 4.34375,-3.515625 c 0,0.15625 0.109375,0.34375 0.375,0.34375 0.21875,0 0.53125,-0.171875 0.53125,-0.578125 0,-0.515625 -0.578125,-0.65625 -0.921875,-0.65625 -0.578125,0 -0.921875,0.53125 -1.046875,0.75 -0.25,-0.65625 -0.78125,-0.75 -1.078125,-0.75 -1.03125,0 -1.609375,1.28125 -1.609375,1.53125 0,0.109375 0.109375,0.109375 0.125,0.109375 0.078125,0 0.109375,-0.03125 0.125,-0.109375 0.34375,-1.0625 1,-1.3125 1.34375,-1.3125 0.1875,0 0.53125,0.09375 0.53125,0.671875 0,0.3125 -0.171875,0.96875 -0.53125,2.375 -0.15625,0.609375 -0.515625,1.03125 -0.953125,1.03125 -0.0625,0 -0.28125,0 -0.5,-0.125 0.25,-0.0625 0.46875,-0.265625 0.46875,-0.546875 0,-0.265625 -0.21875,-0.34375 -0.359375,-0.34375 -0.3125,0 -0.546875,0.25 -0.546875,0.578125 0,0.453125 0.484375,0.65625 0.921875,0.65625 0.671875,0 1.03125,-0.703125 1.046875,-0.75 0.125,0.359375 0.484375,0.75 1.078125,0.75 1.03125,0 1.59375,-1.28125 1.59375,-1.53125 0,-0.109375 -0.078125,-0.109375 -0.109375,-0.109375 -0.09375,0 -0.109375,0.046875 -0.140625,0.109375 -0.328125,1.078125 -1,1.3125 -1.3125,1.3125 -0.390625,0 -0.546875,-0.3125 -0.546875,-0.65625 0,-0.21875 0.046875,-0.4375 0.15625,-0.875 z m 0,0"
               id="id-61ee6746-85ad-4e1d-a8a0-07ee9b95d887" />
          </g>
        </g>
      </g>
    </g>
    <g
       transform="matrix(1.4303498,0,0,1.4303498,103.37452,85.402815)"
       ns1:version="1.11.0"
       ns1:texconverter="pdflatex"
       ns1:pdfconverter="inkscape"
       ns1:text="$l$"
       ns1:preamble="/home/inaki/.config/inkscape/extensions/textext/default_packages.tex"
       ns1:scale="1.0"
       ns1:alignment="middle center"
       ns1:jacobian_sqrt="0.352778"
       id="g13">
      <defs
         id="id-e2104234-ec94-4f29-bb20-851d019d8d84">
        <g
           id="id-5840b469-5c7d-42d0-8732-f967d6966c07">
          <symbol
             overflow="visible"
             id="id-321724b6-3489-4a4a-89ad-008c3145a64f">
            <path
               style="stroke:none;stroke-width:0"
               d=""
               id="id-4efe8e35-d153-4b59-bd97-73bf1b84d463" />
          </symbol>
          <symbol
             overflow="visible"
             id="id-33d4a82f-7137-43da-b2bc-2294dda2a675">
            <path
               style="stroke:none;stroke-width:0"
               d="m 2.578125,-6.8125 c 0,0 0,-0.109375 -0.140625,-0.109375 -0.21875,0 -0.953125,0.078125 -1.21875,0.109375 -0.078125,0 -0.1875,0.015625 -0.1875,0.203125 0,0.109375 0.109375,0.109375 0.25,0.109375 0.484375,0 0.5,0.09375 0.5,0.171875 L 1.75,-6.125 0.484375,-1.140625 C 0.453125,-1.03125 0.4375,-0.96875 0.4375,-0.8125 c 0,0.578125 0.4375,0.921875 0.90625,0.921875 0.328125,0 0.578125,-0.203125 0.75,-0.5625 0.171875,-0.375 0.296875,-0.953125 0.296875,-0.96875 0,-0.109375 -0.09375,-0.109375 -0.125,-0.109375 -0.09375,0 -0.109375,0.046875 -0.125,0.1875 C 1.96875,-0.703125 1.78125,-0.109375 1.375,-0.109375 c -0.296875,0 -0.296875,-0.3125 -0.296875,-0.453125 0,-0.25 0.015625,-0.296875 0.0625,-0.484375 z m 0,0"
               id="id-efeceec8-f979-4629-a76b-af46eb3d1ae5" />
          </symbol>
        </g>
      </defs>
      <g
         id="id-4ed0c993-29e6-4b2b-a210-6dffa9aaebfc"
         transform="translate(-149.15,-127.843)">
        <g
           style="fill:#000000;fill-opacity:1"
           id="id-95d630e8-d8cd-437e-a950-49327f4c5665">
          <g
             transform="translate(148.712,134.765)"
             id="g12">
            <path
               style="stroke:none;stroke-width:0"
               d="m 2.578125,-6.8125 c 0,0 0,-0.109375 -0.140625,-0.109375 -0.21875,0 -0.953125,0.078125 -1.21875,0.109375 -0.078125,0 -0.1875,0.015625 -0.1875,0.203125 0,0.109375 0.109375,0.109375 0.25,0.109375 0.484375,0 0.5,0.09375 0.5,0.171875 L 1.75,-6.125 0.484375,-1.140625 C 0.453125,-1.03125 0.4375,-0.96875 0.4375,-0.8125 c 0,0.578125 0.4375,0.921875 0.90625,0.921875 0.328125,0 0.578125,-0.203125 0.75,-0.5625 0.171875,-0.375 0.296875,-0.953125 0.296875,-0.96875 0,-0.109375 -0.09375,-0.109375 -0.125,-0.109375 -0.09375,0 -0.109375,0.046875 -0.125,0.1875 C 1.96875,-0.703125 1.78125,-0.109375 1.375,-0.109375 c -0.296875,0 -0.296875,-0.3125 -0.296875,-0.453125 0,-0.25 0.015625,-0.296875 0.0625,-0.484375 z m 0,0"
               id="id-88794e8d-0d25-46a3-b74b-99ecacf006b4" />
          </g>
        </g>
      </g>
    </g>
    <g
       transform="matrix(1.46029 0 0 1.46029 127.879 54.5322)"
       ns1:version="1.11.0"
       ns1:texconverter="pdflatex"
       ns1:pdfconverter="inkscape"
       ns1:text="$\\Pi$"
       ns1:preamble="/home/inaki/.config/inkscape/extensions/textext/default_packages.tex"
       ns1:scale="4.13939559723112"
       ns1:alignment="middle center"
       ns1:inkscapeversion="1.4"
       ns1:jacobian_sqrt="1.46029"
       id="g11">
      <defs
         id="id-ba3e93d5-90a6-45f4-960a-cec2ed88d38a">
        <g
           id="id-74dc13f1-5f76-4130-a2a9-633beacf97a1">
          <symbol
             overflow="visible"
             id="id-389b93fd-eaa0-4e9a-a49f-c0b197018e8e">
            <path
               style="stroke:none"
               d=""
               id="id-d6605370-aa5b-491b-8408-4ad6acf07aaf" />
          </symbol>
          <symbol
             overflow="visible"
             id="id-992e7683-0bcf-4236-9814-ac88ccaaa671">
            <path
               style="stroke:none"
               d="m 6.109375,-6 c 0,-0.359375 0.015625,-0.46875 0.78125,-0.46875 h 0.25 v -0.3125 h -6.8125 v 0.3125 H 0.5625 c 0.765625,0 0.796875,0.109375 0.796875,0.46875 v 5.21875 c 0,0.359375 -0.03125,0.46875 -0.796875,0.46875 H 0.328125 V 0 c 0.34375,-0.03125 1.09375,-0.03125 1.46875,-0.03125 0.375,0 1.125,0 1.46875,0.03125 V -0.3125 H 3.03125 C 2.265625,-0.3125 2.25,-0.421875 2.25,-0.78125 v -5.6875 h 2.96875 v 5.6875 c 0,0.359375 -0.015625,0.46875 -0.78125,0.46875 H 4.203125 V 0 c 0.34375,-0.03125 1.078125,-0.03125 1.453125,-0.03125 0.390625,0 1.125,0 1.484375,0.03125 v -0.3125 h -0.25 c -0.765625,0 -0.78125,-0.109375 -0.78125,-0.46875 z m 0,0"
               id="id-136a77f0-ea37-4356-8b48-4bf503eb2e21" />
          </symbol>
        </g>
      </defs>
      <g
         id="id-8a9e57e1-1f6b-43b4-a6ea-f066783741b5"
         transform="translate(-149.04, -127.984)">
        <g
           style="fill:#000000;fill-opacity:1"
           id="id-aaf39f9f-b90a-4dac-ac95-4cd55da076aa">
          <g
             transform="translate(148.712, 134.765)"
             id="g1">
            <path
               style="stroke:none"
               d="m 6.109375,-6 c 0,-0.359375 0.015625,-0.46875 0.78125,-0.46875 h 0.25 v -0.3125 h -6.8125 v 0.3125 H 0.5625 c 0.765625,0 0.796875,0.109375 0.796875,0.46875 v 5.21875 c 0,0.359375 -0.03125,0.46875 -0.796875,0.46875 H 0.328125 V 0 c 0.34375,-0.03125 1.09375,-0.03125 1.46875,-0.03125 0.375,0 1.125,0 1.46875,0.03125 V -0.3125 H 3.03125 C 2.265625,-0.3125 2.25,-0.421875 2.25,-0.78125 v -5.6875 h 2.96875 v 5.6875 c 0,0.359375 -0.015625,0.46875 -0.78125,0.46875 H 4.203125 V 0 c 0.34375,-0.03125 1.078125,-0.03125 1.453125,-0.03125 0.390625,0 1.125,0 1.484375,0.03125 v -0.3125 h -0.25 c -0.765625,0 -0.78125,-0.109375 -0.78125,-0.46875 z m 0,0"
               id="id-eb74693e-74cf-4104-b935-c12504512b69" />
          </g>
        </g>
      </g>
    </g>
  </g>
</svg>
