<?xml version="1.0" encoding="UTF-8" standalone="no"?>
<!-- Created with Inkscape (http://www.inkscape.org/) -->

<svg
   width="88.425804mm"
   height="45.609852mm"
   viewBox="0 0 88.425804 45.609852"
   version="1.1"
   id="svg1"
   xml:space="preserve"
   inkscape:version="1.4 (1:1.4+202410161351+e7c3feb100)"
   sodipodi:docname="tangent_conic.svg"
   xmlns:inkscape="http://www.inkscape.org/namespaces/inkscape"
   xmlns:sodipodi="http://sodipodi.sourceforge.net/DTD/sodipodi-0.dtd"
   xmlns="http://www.w3.org/2000/svg"
   xmlns:svg="http://www.w3.org/2000/svg"
   xmlns:ns4="http://www.iki.fi/pav/software/textext/"><sodipodi:namedview
     id="namedview1"
     pagecolor="#ffffff"
     bordercolor="#666666"
     borderopacity="1.0"
     inkscape:showpageshadow="2"
     inkscape:pageopacity="0.0"
     inkscape:pagecheckerboard="0"
     inkscape:deskcolor="#d1d1d1"
     inkscape:document-units="mm"
     inkscape:zoom="1.1886453"
     inkscape:cx="378.16159"
     inkscape:cy="144.2819"
     inkscape:window-width="1850"
     inkscape:window-height="1136"
     inkscape:window-x="70"
     inkscape:window-y="27"
     inkscape:window-maximized="1"
     inkscape:current-layer="g21" /><defs
     id="defs1"><defs
   id="id-78735481-0de2-4d73-8a10-5bf2ebb26539">
    <g
   id="id-339d0206-ff43-4bb8-a7a5-9114f2257a74">
      <symbol
   overflow="visible"
   id="id-25c3c186-b1ea-47ee-a708-c8bbf0551265">
        <path
   style="stroke:none;stroke-width:0"
   d=""
   id="id-fcaa36ad-b2f6-45dd-b838-10d8e54b54eb" />
      </symbol>
      <symbol
   overflow="visible"
   id="id-17c4deb6-5342-4c73-8daf-e8aa4cb06a0f">
        <path
   style="stroke:none;stroke-width:0"
   d="m 7.578125,-6.921875 c 0,-0.03125 -0.015625,-0.109375 -0.109375,-0.109375 -0.03125,0 -0.046875,0.015625 -0.15625,0.125 L 6.625,-6.140625 C 6.53125,-6.28125 6.078125,-7.03125 4.96875,-7.03125 2.734375,-7.03125 0.5,-4.828125 0.5,-2.515625 0.5,-0.875 1.671875,0.21875 3.203125,0.21875 c 0.859375,0 1.625,-0.390625 2.15625,-0.859375 0.921875,-0.8125 1.09375,-1.71875 1.09375,-1.75 C 6.453125,-2.5 6.34375,-2.5 6.328125,-2.5 c -0.0625,0 -0.109375,0.03125 -0.125,0.109375 -0.09375,0.28125 -0.328125,1 -1.015625,1.578125 -0.6875,0.546875 -1.3125,0.71875 -1.828125,0.71875 -0.890625,0 -1.953125,-0.515625 -1.953125,-2.0625 0,-0.578125 0.203125,-2.1875 1.203125,-3.359375 0.609375,-0.703125 1.546875,-1.203125 2.4375,-1.203125 1.015625,0 1.609375,0.765625 1.609375,1.921875 0,0.40625 -0.03125,0.40625 -0.03125,0.515625 0,0.09375 0.109375,0.09375 0.140625,0.09375 0.125,0 0.125,-0.015625 0.1875,-0.203125 z m 0,0"
   id="id-840a33ae-6e57-4628-bbae-0b2b2fba349a" />
      </symbol>
    </g>
  </defs>
  

    
  
      
      <defs
   id="id-7a2c021c-f344-4893-8a69-819adf921d04">
    <g
   id="id-d30a4753-a9da-440c-9b6e-737338ca2d00">
      <symbol
   overflow="visible"
   id="id-709933f9-f8c6-4331-80cf-81bfab3a103f">
        <path
   style="stroke:none;stroke-width:0"
   d=""
   id="id-aa57b77e-f3f8-4417-8029-32618e3ace68" />
      </symbol>
      <symbol
   overflow="visible"
   id="id-49da86ef-db50-4903-9bfe-e840bb20042e">
        <path
   style="stroke:none;stroke-width:0"
   d="M 0.453125,1.21875 C 0.375,1.5625 0.34375,1.625 -0.09375,1.625 c -0.109375,0 -0.21875,0 -0.21875,0.1875 0,0.078125 0.046875,0.125 0.125,0.125 0.265625,0 0.5625,-0.03125 0.828125,-0.03125 0.34375,0 0.671875,0.03125 1,0.03125 0.046875,0 0.171875,0 0.171875,-0.203125 C 1.8125,1.625 1.71875,1.625 1.578125,1.625 c -0.5,0 -0.5,-0.0625 -0.5,-0.15625 0,-0.125 0.421875,-1.75 0.484375,-2 0.125,0.296875 0.40625,0.640625 0.921875,0.640625 1.15625,0 2.40625,-1.453125 2.40625,-2.921875 0,-0.9375 -0.578125,-1.59375 -1.328125,-1.59375 -0.5,0 -0.984375,0.359375 -1.3125,0.75 -0.09375,-0.546875 -0.53125,-0.75 -0.890625,-0.75 -0.46875,0 -0.65625,0.390625 -0.734375,0.5625 C 0.4375,-3.5 0.3125,-2.90625 0.3125,-2.875 c 0,0.109375 0.09375,0.109375 0.109375,0.109375 0.109375,0 0.109375,-0.015625 0.171875,-0.234375 0.171875,-0.703125 0.375,-1.1875 0.734375,-1.1875 0.171875,0 0.3125,0.078125 0.3125,0.453125 0,0.234375 -0.03125,0.34375 -0.078125,0.515625 z m 1.75,-4.328125 C 2.265625,-3.375 2.546875,-3.65625 2.71875,-3.8125 c 0.359375,-0.296875 0.640625,-0.375 0.8125,-0.375 0.390625,0 0.640625,0.34375 0.640625,0.9375 0,0.59375 -0.328125,1.734375 -0.515625,2.109375 -0.34375,0.703125 -0.8125,1.03125 -1.1875,1.03125 C 1.8125,-0.109375 1.6875,-0.9375 1.6875,-1 c 0,-0.015625 0,-0.03125 0.03125,-0.15625 z m 0,0"
   id="id-e216ac1f-c24a-4535-a985-e9f66131e318" />
      </symbol>
    </g>
  </defs>
  
</defs><g
     inkscape:label="Layer 1"
     inkscape:groupmode="layer"
     id="layer1"
     transform="translate(-0.231795, -84.8256)"><ellipse
       style="fill:none;stroke:#000000;stroke-width:0.578;stroke-dasharray:none"
       id="path1"
       cx="44.219643"
       cy="113.34062"
       rx="35.392181"
       ry="11.463505" /><circle
       style="fill:#0000ff;stroke:none;stroke-width:0.578001;stroke-dasharray:none"
       id="path2"
       cx="23.407263"
       cy="103.76916"
       r="1.2242578" /><g
       transform="matrix(0.352778 0 0 0.352778 58.7085 90.6927)"
       ns4:version="1.11.0"
       ns4:texconverter="pdflatex"
       ns4:pdfconverter="inkscape"
       ns4:text="$l=C\\cdotp$"
       ns4:preamble="/home/inaki/.config/inkscape/extensions/textext/default_packages.tex"
       ns4:scale="1.0"
       ns4:alignment="middle center"
       ns4:inkscapeversion="1.4"
       ns4:jacobian_sqrt="0.352778"
       id="g21"><defs
   id="id-aaad2e4c-ec67-4584-a4d5-6ea44a8b58ed">
    <g
   id="id-f843118f-f0b4-4fdd-a9a7-fd0472c67f00">
      <symbol
   overflow="visible"
   id="id-afc98ab6-052d-46d1-9c05-05f27187b4fd">
        <path
   style="stroke:none;stroke-width:0"
   d=""
   id="id-7734f3a3-7c34-40df-a49d-fab7d92df84d" />
      </symbol>
      <symbol
   overflow="visible"
   id="id-3390476f-c78d-4169-9eee-02a7c86dcc16">
        <path
   style="stroke:none;stroke-width:0"
   d="m 2.578125,-6.8125 c 0,0 0,-0.109375 -0.140625,-0.109375 -0.21875,0 -0.953125,0.078125 -1.21875,0.109375 -0.078125,0 -0.1875,0.015625 -0.1875,0.203125 0,0.109375 0.109375,0.109375 0.25,0.109375 0.484375,0 0.5,0.09375 0.5,0.171875 L 1.75,-6.125 0.484375,-1.140625 C 0.453125,-1.03125 0.4375,-0.96875 0.4375,-0.8125 c 0,0.578125 0.4375,0.921875 0.90625,0.921875 0.328125,0 0.578125,-0.203125 0.75,-0.5625 0.171875,-0.375 0.296875,-0.953125 0.296875,-0.96875 0,-0.109375 -0.09375,-0.109375 -0.125,-0.109375 -0.09375,0 -0.109375,0.046875 -0.125,0.1875 C 1.96875,-0.703125 1.78125,-0.109375 1.375,-0.109375 c -0.296875,0 -0.296875,-0.3125 -0.296875,-0.453125 0,-0.25 0.015625,-0.296875 0.0625,-0.484375 z m 0,0"
   id="id-6b9e5b30-d0f5-4717-a736-9532d6fd4dcc" />
      </symbol>
      <symbol
   overflow="visible"
   id="id-852faed5-cd9e-4747-beb8-f52d986c81c1">
        <path
   style="stroke:none;stroke-width:0"
   d="m 7.578125,-6.921875 c 0,-0.03125 -0.015625,-0.109375 -0.109375,-0.109375 -0.03125,0 -0.046875,0.015625 -0.15625,0.125 L 6.625,-6.140625 C 6.53125,-6.28125 6.078125,-7.03125 4.96875,-7.03125 2.734375,-7.03125 0.5,-4.828125 0.5,-2.515625 0.5,-0.875 1.671875,0.21875 3.203125,0.21875 c 0.859375,0 1.625,-0.390625 2.15625,-0.859375 0.921875,-0.8125 1.09375,-1.71875 1.09375,-1.75 C 6.453125,-2.5 6.34375,-2.5 6.328125,-2.5 c -0.0625,0 -0.109375,0.03125 -0.125,0.109375 -0.09375,0.28125 -0.328125,1 -1.015625,1.578125 -0.6875,0.546875 -1.3125,0.71875 -1.828125,0.71875 -0.890625,0 -1.953125,-0.515625 -1.953125,-2.0625 0,-0.578125 0.203125,-2.1875 1.203125,-3.359375 0.609375,-0.703125 1.546875,-1.203125 2.4375,-1.203125 1.015625,0 1.609375,0.765625 1.609375,1.921875 0,0.40625 -0.03125,0.40625 -0.03125,0.515625 0,0.09375 0.109375,0.09375 0.140625,0.09375 0.125,0 0.125,-0.015625 0.1875,-0.203125 z m 0,0"
   id="id-fe4b3e31-ca2c-4c48-bbf5-5b93f248aea7" />
      </symbol>
      <symbol
   overflow="visible"
   id="id-6eec9d3e-61f3-4248-a3ba-15ef30707f9f">
        <path
   style="stroke:none;stroke-width:0"
   d=""
   id="id-8a4f0125-0af1-4f3f-93c1-e4fc309709cc" />
      </symbol>
      <symbol
   overflow="visible"
   id="id-3760abcf-c37c-4935-af98-16b83fe77ee3">
        <path
   style="stroke:none;stroke-width:0"
   d="m 6.84375,-3.265625 c 0.15625,0 0.34375,0 0.34375,-0.1875 C 7.1875,-3.65625 7,-3.65625 6.859375,-3.65625 h -5.96875 c -0.140625,0 -0.328125,0 -0.328125,0.203125 0,0.1875 0.1875,0.1875 0.328125,0.1875 z m 0.015625,1.9375 c 0.140625,0 0.328125,0 0.328125,-0.203125 0,-0.1875 -0.1875,-0.1875 -0.34375,-0.1875 H 0.890625 c -0.140625,0 -0.328125,0 -0.328125,0.1875 0,0.203125 0.1875,0.203125 0.328125,0.203125 z m 0,0"
   id="id-7754ed68-d03a-4959-8272-41731765f9f6" />
      </symbol>
      <symbol
   overflow="visible"
   id="id-261b73c8-4f00-44e2-9af5-9f67f2be5b7d">
        <path
   style="stroke:none;stroke-width:0"
   d=""
   id="id-38e0dcf5-db9b-4361-a23b-7d3f52d7526b" />
      </symbol>
      <symbol
   overflow="visible"
   id="id-4baff6e3-0bd0-4451-b1c7-a6126efce4f5">
        <path
   style="stroke:none;stroke-width:0"
   d="m 1.90625,-2.5 c 0,-0.28125 -0.234375,-0.515625 -0.515625,-0.515625 -0.296875,0 -0.53125,0.234375 -0.53125,0.515625 0,0.296875 0.234375,0.53125 0.53125,0.53125 0.28125,0 0.515625,-0.234375 0.515625,-0.53125 z m 0,0"
   id="id-45792681-1c3a-4e67-8a0b-79baeac85326" />
      </symbol>
    </g>
  </defs>
  
<path
   style="fill:#000000;fill-opacity:1;stroke:none;stroke-width:0"
   d="m 39.081347,63.761061 c 0,-0.07592 -0.03797,-0.26571 -0.265708,-0.26571 -0.07592,0 -0.113865,0.03796 -0.379585,0.303669 l -1.670173,1.859969 c -0.227752,-0.341633 -1.328548,-2.163638 -4.023599,-2.163638 -5.428063,0 -10.856126,5.35214 -10.856126,10.969996 0,3.985646 2.846886,6.642743 6.566817,6.642743 2.087716,0 3.947682,-0.948969 5.23827,-2.087721 2.23955,-1.973843 2.657093,-4.17543 2.657093,-4.251348 0,-0.265715 -0.265708,-0.265715 -0.303667,-0.265715 -0.151834,0 -0.265709,0.07592 -0.303668,0.265715 -0.227751,0.683254 -0.797128,2.429342 -2.467301,3.833809 -1.670173,1.328548 -3.188512,1.746088 -4.441142,1.746088 -2.163633,0 -4.744809,-1.252631 -4.744809,-5.010521 0,-1.404467 0.49346,-5.314182 2.922801,-8.161075 1.480382,-1.708129 3.757891,-2.922801 5.921524,-2.922801 2.467301,0 3.909722,1.859967 3.909722,4.668888 0,0.986928 -0.07592,0.986928 -0.07592,1.25263 0,0.227756 0.265708,0.227756 0.341626,0.227756 0.303667,0 0.303667,-0.03796 0.455502,-0.493458 z m 0,0"
   id="id-17871665-35eb-434c-a38b-31d96f8edf99" /><circle
   id="path21"
   style="fill:#000000;stroke:none;stroke-width:0.75"
   cx="-97.227074"
   cy="36.12059"
   r="1.1249993" /><path
   style="fill:#008000;stroke:#008000;stroke-width:2.1685;stroke-linecap:butt;stroke-linejoin:miter;stroke-dasharray:none;stroke-opacity:1"
   d="M -165.37184,60.72842 33.383713,-15.618951"
   id="path22" /><g
   transform="matrix(2.3734313,0,0,2.3734313,-8.8125532,5.5559526)"
   ns4:version="1.11.0"
   ns4:texconverter="pdflatex"
   ns4:pdfconverter="inkscape"
   ns4:text="$l=C\\cdot x$\n"
   ns4:preamble="/home/inaki/.config/inkscape/extensions/textext/default_packages.tex"
   ns4:scale="1.0"
   ns4:alignment="middle center"
   ns4:inkscapeversion="1.4"
   ns4:jacobian_sqrt="1.0"
   id="g27"
   style="fill:#008000"><defs
   id="id-6e40a334-ded5-4bf1-a269-ff84c42b045c">
    <g
   id="id-9f757340-5137-48b5-b505-c0f62cff7506">
      <symbol
   overflow="visible"
   id="id-9273cc08-b186-4f37-b4fd-72597bfaeff3">
        <path
   style="stroke:none;stroke-width:0"
   d=""
   id="id-75dadff8-5588-4f86-9e6c-6ee4be1f4593" />
      </symbol>
      <symbol
   overflow="visible"
   id="id-6533eb6f-3d7c-4e17-b0ba-101c27e7edf9">
        <path
   style="stroke:none;stroke-width:0"
   d="m 2.578125,-6.8125 c 0,0 0,-0.109375 -0.140625,-0.109375 -0.21875,0 -0.953125,0.078125 -1.21875,0.109375 -0.078125,0 -0.1875,0.015625 -0.1875,0.203125 0,0.109375 0.109375,0.109375 0.25,0.109375 0.484375,0 0.5,0.09375 0.5,0.171875 L 1.75,-6.125 0.484375,-1.140625 C 0.453125,-1.03125 0.4375,-0.96875 0.4375,-0.8125 c 0,0.578125 0.4375,0.921875 0.90625,0.921875 0.328125,0 0.578125,-0.203125 0.75,-0.5625 0.171875,-0.375 0.296875,-0.953125 0.296875,-0.96875 0,-0.109375 -0.09375,-0.109375 -0.125,-0.109375 -0.09375,0 -0.109375,0.046875 -0.125,0.1875 C 1.96875,-0.703125 1.78125,-0.109375 1.375,-0.109375 c -0.296875,0 -0.296875,-0.3125 -0.296875,-0.453125 0,-0.25 0.015625,-0.296875 0.0625,-0.484375 z m 0,0"
   id="id-50ea63b0-435e-4b26-bad9-5bb32b627079" />
      </symbol>
      <symbol
   overflow="visible"
   id="id-a5f6975d-c0dd-4a88-893e-7eeba4ddb927">
        <path
   style="stroke:none;stroke-width:0"
   d="m 7.578125,-6.921875 c 0,-0.03125 -0.015625,-0.109375 -0.109375,-0.109375 -0.03125,0 -0.046875,0.015625 -0.15625,0.125 L 6.625,-6.140625 C 6.53125,-6.28125 6.078125,-7.03125 4.96875,-7.03125 2.734375,-7.03125 0.5,-4.828125 0.5,-2.515625 0.5,-0.875 1.671875,0.21875 3.203125,0.21875 c 0.859375,0 1.625,-0.390625 2.15625,-0.859375 0.921875,-0.8125 1.09375,-1.71875 1.09375,-1.75 C 6.453125,-2.5 6.34375,-2.5 6.328125,-2.5 c -0.0625,0 -0.109375,0.03125 -0.125,0.109375 -0.09375,0.28125 -0.328125,1 -1.015625,1.578125 -0.6875,0.546875 -1.3125,0.71875 -1.828125,0.71875 -0.890625,0 -1.953125,-0.515625 -1.953125,-2.0625 0,-0.578125 0.203125,-2.1875 1.203125,-3.359375 0.609375,-0.703125 1.546875,-1.203125 2.4375,-1.203125 1.015625,0 1.609375,0.765625 1.609375,1.921875 0,0.40625 -0.03125,0.40625 -0.03125,0.515625 0,0.09375 0.109375,0.09375 0.140625,0.09375 0.125,0 0.125,-0.015625 0.1875,-0.203125 z m 0,0"
   id="id-20f7dc22-7c17-4153-af4c-ce9e259be535" />
      </symbol>
      <symbol
   overflow="visible"
   id="id-4becea94-c247-4a19-8e84-fac31520cd98">
        <path
   style="stroke:none;stroke-width:0"
   d="M 3.328125,-3.015625 C 3.390625,-3.265625 3.625,-4.1875 4.3125,-4.1875 c 0.046875,0 0.296875,0 0.5,0.125 C 4.53125,-4 4.34375,-3.765625 4.34375,-3.515625 c 0,0.15625 0.109375,0.34375 0.375,0.34375 0.21875,0 0.53125,-0.171875 0.53125,-0.578125 0,-0.515625 -0.578125,-0.65625 -0.921875,-0.65625 -0.578125,0 -0.921875,0.53125 -1.046875,0.75 -0.25,-0.65625 -0.78125,-0.75 -1.078125,-0.75 -1.03125,0 -1.609375,1.28125 -1.609375,1.53125 0,0.109375 0.109375,0.109375 0.125,0.109375 0.078125,0 0.109375,-0.03125 0.125,-0.109375 0.34375,-1.0625 1,-1.3125 1.34375,-1.3125 0.1875,0 0.53125,0.09375 0.53125,0.671875 0,0.3125 -0.171875,0.96875 -0.53125,2.375 -0.15625,0.609375 -0.515625,1.03125 -0.953125,1.03125 -0.0625,0 -0.28125,0 -0.5,-0.125 0.25,-0.0625 0.46875,-0.265625 0.46875,-0.546875 0,-0.265625 -0.21875,-0.34375 -0.359375,-0.34375 -0.3125,0 -0.546875,0.25 -0.546875,0.578125 0,0.453125 0.484375,0.65625 0.921875,0.65625 0.671875,0 1.03125,-0.703125 1.046875,-0.75 0.125,0.359375 0.484375,0.75 1.078125,0.75 1.03125,0 1.59375,-1.28125 1.59375,-1.53125 0,-0.109375 -0.078125,-0.109375 -0.109375,-0.109375 -0.09375,0 -0.109375,0.046875 -0.140625,0.109375 -0.328125,1.078125 -1,1.3125 -1.3125,1.3125 -0.390625,0 -0.546875,-0.3125 -0.546875,-0.65625 0,-0.21875 0.046875,-0.4375 0.15625,-0.875 z m 0,0"
   id="id-3cefbcc1-27ad-4b8b-8c1e-258a0b8357d8" />
      </symbol>
      <symbol
   overflow="visible"
   id="id-3a636d57-f50a-48d4-8a27-15c67192f398">
        <path
   style="stroke:none;stroke-width:0"
   d=""
   id="id-a53334ae-f5b4-4e94-9347-438d4e9e5708" />
      </symbol>
      <symbol
   overflow="visible"
   id="id-f1825d50-18bd-47f0-9258-6ccf728fc075">
        <path
   style="stroke:none;stroke-width:0"
   d="m 6.84375,-3.265625 c 0.15625,0 0.34375,0 0.34375,-0.1875 C 7.1875,-3.65625 7,-3.65625 6.859375,-3.65625 h -5.96875 c -0.140625,0 -0.328125,0 -0.328125,0.203125 0,0.1875 0.1875,0.1875 0.328125,0.1875 z m 0.015625,1.9375 c 0.140625,0 0.328125,0 0.328125,-0.203125 0,-0.1875 -0.1875,-0.1875 -0.34375,-0.1875 H 0.890625 c -0.140625,0 -0.328125,0 -0.328125,0.1875 0,0.203125 0.1875,0.203125 0.328125,0.203125 z m 0,0"
   id="id-4c6c387f-1bc3-4890-9579-598d86069afb" />
      </symbol>
      <symbol
   overflow="visible"
   id="id-d80ebef8-d479-487e-bd50-d01d9fe2c693">
        <path
   style="stroke:none;stroke-width:0"
   d=""
   id="id-6f1f7d76-d1ee-4d6e-a2d4-65bc3ab8cf1a" />
      </symbol>
      <symbol
   overflow="visible"
   id="id-033cf8eb-a505-4298-b622-c5aea7665b67">
        <path
   style="stroke:none;stroke-width:0"
   d="m 1.90625,-2.5 c 0,-0.28125 -0.234375,-0.515625 -0.515625,-0.515625 -0.296875,0 -0.53125,0.234375 -0.53125,0.515625 0,0.296875 0.234375,0.53125 0.53125,0.53125 0.28125,0 0.515625,-0.234375 0.515625,-0.53125 z m 0,0"
   id="id-04a3fef8-86ea-42bc-a37f-0f4d78e22e09" />
      </symbol>
    </g>
  </defs>
  <g
   id="id-d83b34b5-8d56-4f68-9fca-178c74bd46b2"
   transform="translate(-149.15,-127.734)"
   style="fill:#008000">
    <g
   style="fill:#008000;fill-opacity:1"
   id="id-749098b9-087b-4cb1-9069-ead19cd0084d">
      <g
   transform="translate(148.712,134.765)"
   id="g22"
   style="fill:#008000"><path
   style="fill:#008000;stroke:none;stroke-width:0"
   d="m 2.578125,-6.8125 c 0,0 0,-0.109375 -0.140625,-0.109375 -0.21875,0 -0.953125,0.078125 -1.21875,0.109375 -0.078125,0 -0.1875,0.015625 -0.1875,0.203125 0,0.109375 0.109375,0.109375 0.25,0.109375 0.484375,0 0.5,0.09375 0.5,0.171875 L 1.75,-6.125 0.484375,-1.140625 C 0.453125,-1.03125 0.4375,-0.96875 0.4375,-0.8125 c 0,0.578125 0.4375,0.921875 0.90625,0.921875 0.328125,0 0.578125,-0.203125 0.75,-0.5625 0.171875,-0.375 0.296875,-0.953125 0.296875,-0.96875 0,-0.109375 -0.09375,-0.109375 -0.125,-0.109375 -0.09375,0 -0.109375,0.046875 -0.125,0.1875 C 1.96875,-0.703125 1.78125,-0.109375 1.375,-0.109375 c -0.296875,0 -0.296875,-0.3125 -0.296875,-0.453125 0,-0.25 0.015625,-0.296875 0.0625,-0.484375 z m 0,0"
   id="id-4e08b5d3-41af-44f0-8da9-accf3a78392c" />
      </g></g>
    <g
   style="fill:#008000;fill-opacity:1"
   id="id-384b2f7d-27ad-48c7-bbbc-01ab10c88cea">
      <g
   transform="translate(154.648,134.765)"
   id="g23"
   style="fill:#008000"><path
   style="fill:#008000;stroke:none;stroke-width:0"
   d="m 6.84375,-3.265625 c 0.15625,0 0.34375,0 0.34375,-0.1875 C 7.1875,-3.65625 7,-3.65625 6.859375,-3.65625 h -5.96875 c -0.140625,0 -0.328125,0 -0.328125,0.203125 0,0.1875 0.1875,0.1875 0.328125,0.1875 z m 0.015625,1.9375 c 0.140625,0 0.328125,0 0.328125,-0.203125 0,-0.1875 -0.1875,-0.1875 -0.34375,-0.1875 H 0.890625 c -0.140625,0 -0.328125,0 -0.328125,0.1875 0,0.203125 0.1875,0.203125 0.328125,0.203125 z m 0,0"
   id="id-8b107b8f-a475-40ea-bd86-bbf2efe5ac75" />
      </g></g>
    <g
   style="fill:#008000;fill-opacity:1"
   id="id-9cb30479-9a59-4d51-959b-5d920da57eed">
      <g
   transform="translate(165.164,134.765)"
   id="g24"
   style="fill:#008000"><path
   style="fill:#008000;stroke:none;stroke-width:0"
   d="m 7.578125,-6.921875 c 0,-0.03125 -0.015625,-0.109375 -0.109375,-0.109375 -0.03125,0 -0.046875,0.015625 -0.15625,0.125 L 6.625,-6.140625 C 6.53125,-6.28125 6.078125,-7.03125 4.96875,-7.03125 2.734375,-7.03125 0.5,-4.828125 0.5,-2.515625 0.5,-0.875 1.671875,0.21875 3.203125,0.21875 c 0.859375,0 1.625,-0.390625 2.15625,-0.859375 0.921875,-0.8125 1.09375,-1.71875 1.09375,-1.75 C 6.453125,-2.5 6.34375,-2.5 6.328125,-2.5 c -0.0625,0 -0.109375,0.03125 -0.125,0.109375 -0.09375,0.28125 -0.328125,1 -1.015625,1.578125 -0.6875,0.546875 -1.3125,0.71875 -1.828125,0.71875 -0.890625,0 -1.953125,-0.515625 -1.953125,-2.0625 0,-0.578125 0.203125,-2.1875 1.203125,-3.359375 0.609375,-0.703125 1.546875,-1.203125 2.4375,-1.203125 1.015625,0 1.609375,0.765625 1.609375,1.921875 0,0.40625 -0.03125,0.40625 -0.03125,0.515625 0,0.09375 0.109375,0.09375 0.140625,0.09375 0.125,0 0.125,-0.015625 0.1875,-0.203125 z m 0,0"
   id="id-87924a5f-7a69-48b4-8278-86ac742c1eb1" />
      </g></g>
    <g
   style="fill:#008000;fill-opacity:1"
   id="id-b3e01e69-d2af-46c3-a579-01780676d204">
      <g
   transform="translate(175.211,134.765)"
   id="g25"
   style="fill:#008000"><path
   style="fill:#008000;stroke:none;stroke-width:0"
   d="m 1.90625,-2.5 c 0,-0.28125 -0.234375,-0.515625 -0.515625,-0.515625 -0.296875,0 -0.53125,0.234375 -0.53125,0.515625 0,0.296875 0.234375,0.53125 0.53125,0.53125 0.28125,0 0.515625,-0.234375 0.515625,-0.53125 z m 0,0"
   id="id-a6c2da05-e762-4b14-80c9-df2d601cce62" />
      </g></g>
    <g
   style="fill:#008000;fill-opacity:1"
   id="id-78d8b118-7188-4f29-b894-b4ac5eeec424">
      <g
   transform="translate(180.193,134.765)"
   id="g26"
   style="fill:#008000"><path
   style="fill:#008000;stroke:none;stroke-width:0"
   d="M 3.328125,-3.015625 C 3.390625,-3.265625 3.625,-4.1875 4.3125,-4.1875 c 0.046875,0 0.296875,0 0.5,0.125 C 4.53125,-4 4.34375,-3.765625 4.34375,-3.515625 c 0,0.15625 0.109375,0.34375 0.375,0.34375 0.21875,0 0.53125,-0.171875 0.53125,-0.578125 0,-0.515625 -0.578125,-0.65625 -0.921875,-0.65625 -0.578125,0 -0.921875,0.53125 -1.046875,0.75 -0.25,-0.65625 -0.78125,-0.75 -1.078125,-0.75 -1.03125,0 -1.609375,1.28125 -1.609375,1.53125 0,0.109375 0.109375,0.109375 0.125,0.109375 0.078125,0 0.109375,-0.03125 0.125,-0.109375 0.34375,-1.0625 1,-1.3125 1.34375,-1.3125 0.1875,0 0.53125,0.09375 0.53125,0.671875 0,0.3125 -0.171875,0.96875 -0.53125,2.375 -0.15625,0.609375 -0.515625,1.03125 -0.953125,1.03125 -0.0625,0 -0.28125,0 -0.5,-0.125 0.25,-0.0625 0.46875,-0.265625 0.46875,-0.546875 0,-0.265625 -0.21875,-0.34375 -0.359375,-0.34375 -0.3125,0 -0.546875,0.25 -0.546875,0.578125 0,0.453125 0.484375,0.65625 0.921875,0.65625 0.671875,0 1.03125,-0.703125 1.046875,-0.75 0.125,0.359375 0.484375,0.75 1.078125,0.75 1.03125,0 1.59375,-1.28125 1.59375,-1.53125 0,-0.109375 -0.078125,-0.109375 -0.109375,-0.109375 -0.09375,0 -0.109375,0.046875 -0.140625,0.109375 -0.328125,1.078125 -1,1.3125 -1.3125,1.3125 -0.390625,0 -0.546875,-0.3125 -0.546875,-0.65625 0,-0.21875 0.046875,-0.4375 0.15625,-0.875 z m 0,0"
   id="id-967be591-78ef-49dc-8a46-8fcc2202fbc4" />
      </g></g>
  </g>
</g><g
   transform="matrix(2.6767646,0,0,2.6767646,-110.50305,14.237389)"
   ns4:version="1.11.0"
   ns4:texconverter="pdflatex"
   ns4:pdfconverter="inkscape"
   ns4:text="$x$\n"
   ns4:preamble="/home/inaki/.config/inkscape/extensions/textext/default_packages.tex"
   ns4:scale="1.0"
   ns4:alignment="middle center"
   ns4:inkscapeversion="1.4"
   ns4:jacobian_sqrt="1.0"
   id="g29"
   style="fill:#0000ff"><defs
   id="id-03850743-b819-411d-99bd-747d22265844">
    <g
   id="id-28acdc76-89d7-45aa-81c6-30125b90a61e">
      <symbol
   overflow="visible"
   id="id-ca5ab05d-c1a6-4130-b192-a40bf691877c">
        <path
   style="stroke:none;stroke-width:0"
   d=""
   id="id-c8bb4ef9-6fca-4398-88ed-c5bf9a0726c3" />
      </symbol>
      <symbol
   overflow="visible"
   id="id-f6fe9c99-49ec-488b-9fc9-0292531acbf2">
        <path
   style="stroke:none;stroke-width:0"
   d="M 3.328125,-3.015625 C 3.390625,-3.265625 3.625,-4.1875 4.3125,-4.1875 c 0.046875,0 0.296875,0 0.5,0.125 C 4.53125,-4 4.34375,-3.765625 4.34375,-3.515625 c 0,0.15625 0.109375,0.34375 0.375,0.34375 0.21875,0 0.53125,-0.171875 0.53125,-0.578125 0,-0.515625 -0.578125,-0.65625 -0.921875,-0.65625 -0.578125,0 -0.921875,0.53125 -1.046875,0.75 -0.25,-0.65625 -0.78125,-0.75 -1.078125,-0.75 -1.03125,0 -1.609375,1.28125 -1.609375,1.53125 0,0.109375 0.109375,0.109375 0.125,0.109375 0.078125,0 0.109375,-0.03125 0.125,-0.109375 0.34375,-1.0625 1,-1.3125 1.34375,-1.3125 0.1875,0 0.53125,0.09375 0.53125,0.671875 0,0.3125 -0.171875,0.96875 -0.53125,2.375 -0.15625,0.609375 -0.515625,1.03125 -0.953125,1.03125 -0.0625,0 -0.28125,0 -0.5,-0.125 0.25,-0.0625 0.46875,-0.265625 0.46875,-0.546875 0,-0.265625 -0.21875,-0.34375 -0.359375,-0.34375 -0.3125,0 -0.546875,0.25 -0.546875,0.578125 0,0.453125 0.484375,0.65625 0.921875,0.65625 0.671875,0 1.03125,-0.703125 1.046875,-0.75 0.125,0.359375 0.484375,0.75 1.078125,0.75 1.03125,0 1.59375,-1.28125 1.59375,-1.53125 0,-0.109375 -0.078125,-0.109375 -0.109375,-0.109375 -0.09375,0 -0.109375,0.046875 -0.140625,0.109375 -0.328125,1.078125 -1,1.3125 -1.3125,1.3125 -0.390625,0 -0.546875,-0.3125 -0.546875,-0.65625 0,-0.21875 0.046875,-0.4375 0.15625,-0.875 z m 0,0"
   id="id-e7f186bd-4e20-4e1f-a07d-77e68853764d" />
      </symbol>
    </g>
  </defs>
  <g
   id="id-930a20eb-e759-4ac9-810b-d4617a006d23"
   transform="translate(-149.009,-130.359)"
   style="fill:#0000ff">
    <g
   style="fill:#0000ff;fill-opacity:1"
   id="id-5c34aa63-fa7d-4cdd-b1be-15b46ae30c96">
      <g
   transform="translate(148.712,134.765)"
   id="g28"
   style="fill:#0000ff"><path
   style="fill:#0000ff;stroke:none;stroke-width:0"
   d="M 3.328125,-3.015625 C 3.390625,-3.265625 3.625,-4.1875 4.3125,-4.1875 c 0.046875,0 0.296875,0 0.5,0.125 C 4.53125,-4 4.34375,-3.765625 4.34375,-3.515625 c 0,0.15625 0.109375,0.34375 0.375,0.34375 0.21875,0 0.53125,-0.171875 0.53125,-0.578125 0,-0.515625 -0.578125,-0.65625 -0.921875,-0.65625 -0.578125,0 -0.921875,0.53125 -1.046875,0.75 -0.25,-0.65625 -0.78125,-0.75 -1.078125,-0.75 -1.03125,0 -1.609375,1.28125 -1.609375,1.53125 0,0.109375 0.109375,0.109375 0.125,0.109375 0.078125,0 0.109375,-0.03125 0.125,-0.109375 0.34375,-1.0625 1,-1.3125 1.34375,-1.3125 0.1875,0 0.53125,0.09375 0.53125,0.671875 0,0.3125 -0.171875,0.96875 -0.53125,2.375 -0.15625,0.609375 -0.515625,1.03125 -0.953125,1.03125 -0.0625,0 -0.28125,0 -0.5,-0.125 0.25,-0.0625 0.46875,-0.265625 0.46875,-0.546875 0,-0.265625 -0.21875,-0.34375 -0.359375,-0.34375 -0.3125,0 -0.546875,0.25 -0.546875,0.578125 0,0.453125 0.484375,0.65625 0.921875,0.65625 0.671875,0 1.03125,-0.703125 1.046875,-0.75 0.125,0.359375 0.484375,0.75 1.078125,0.75 1.03125,0 1.59375,-1.28125 1.59375,-1.53125 0,-0.109375 -0.078125,-0.109375 -0.109375,-0.109375 -0.09375,0 -0.109375,0.046875 -0.140625,0.109375 -0.328125,1.078125 -1,1.3125 -1.3125,1.3125 -0.390625,0 -0.546875,-0.3125 -0.546875,-0.65625 0,-0.21875 0.046875,-0.4375 0.15625,-0.875 z m 0,0"
   id="id-1cfee989-1556-43e7-89d3-9a95fca49525" />
      </g></g>
  </g>
</g></g></g></svg>
